PathFileType	4	(X/Y/Z)	C:\Users\WrightLab\Desktop\Jo\P2_Trial12.trc
DataRate	CameraRate	NumFrames	NumMarkers	Units	OrigDataRate	OrigDataStartFrame	OrigNumFrames
100.00	100.00	       27	19	mm	100.00	82	       653
Frame#	Time	Headset_Front			Headset_Back			Headset_Left			Headset_Right			Left_Shoulder			Right_Shoulder			Sternum			C7			Left Elbow			Right Elbow			Left Wrist			Right Wrist			Left ASIS			Right ASIS			S2			Left Knee			Right Knee			Left Ankle			Right Ankle			
		X1	Y1	Z1	X2	Y2	Z2	X3	Y3	Z3	X4	Y4	Z4	X5	Y5	Z5	X6	Y6	Z6	X7	Y7	Z7	X8	Y8	Z8	X9	Y9	Z9	X10	Y10	Z10	X11	Y11	Z11	X12	Y12	Z12	X13	Y13	Z13	X14	Y14	Z14	X15	Y15	Z15	X16	Y16	Z16	X17	Y17	Z17	X18	Y18	Z18	X19	Y19	Z19	

82	0.810																			-536.36102	1297.78992	-1186.89929				-260.58826	1075.68042	-1201.78125				-469.21011	930.30060	-1438.24927	-827.38745	841.82178	-1380.66052	-484.39435	1012.06128	-1168.75037	-609.67157	996.43781	-1203.01160				-341.62878	424.52704	-1224.35229	-704.59344	511.40506	-1344.54089	-232.17891	149.61647	-1374.89124				
83	0.820																			-539.06476	1296.99219	-1181.50623				-264.90414	1077.09241	-1196.91699				-471.87180	930.96094	-1433.37830	-833.44067	841.49585	-1366.40515	-487.25891	1014.41553	-1161.87842	-613.97058	997.72998	-1197.20984				-350.74579	424.33255	-1207.97290	-704.82977	510.94449	-1345.49878	-242.00281	151.99844	-1361.54980				
84	0.830				-787.11316	1093.83386	-1363.91040													-543.74994	1297.36560	-1175.53992				-268.93362	1077.80615	-1193.01990				-474.37393	931.04877	-1427.02954	-838.81183	841.65259	-1353.18994	-491.83450	1015.10480	-1159.22131	-617.26758	998.43988	-1194.05042				-357.66443	424.44418	-1193.11414	-706.94904	512.39642	-1337.79602	-252.21950	154.61127	-1348.52429				
85	0.840	-634.87537	1540.94739	-1076.03088	-791.80896	1092.82654	-1353.12244													-547.27118	1298.96741	-1170.53442				-272.82040	1078.98413	-1188.35852				-476.73520	931.80487	-1422.11340	-844.55817	842.26807	-1339.64038	-496.44058	1016.46216	-1154.80005	-620.25250	999.37402	-1189.51404				-366.13977	425.65497	-1177.01526	-708.06403	510.65170	-1335.70313	-262.39099	157.10112	-1335.89526				
86	0.850	-638.58411	1541.06323	-1069.97278	-796.17218	1092.88745	-1344.82385										-705.48633	1411.51868	-1244.61853	-549.79950	1298.70398	-1165.17993				-277.48578	1079.35046	-1184.76172				-479.18600	931.95496	-1416.31567	-849.72772	841.31946	-1323.34985	-498.35156	1017.67200	-1148.16028	-623.53558	1001.30328	-1183.44971	-267.68579	835.53870	-1167.58630	-372.06967	427.91339	-1160.62964	-708.48529	509.05569	-1335.73792	-273.55359	158.72446	-1322.84314				
87	0.860	-642.32947	1540.90942	-1064.27771	-800.27332	1092.53149	-1335.36121										-709.51782	1412.25281	-1239.99402	-554.69513	1299.37280	-1159.67590				-280.71622	1079.37378	-1180.79968				-481.70367	932.28821	-1410.92102	-854.80212	841.71454	-1308.75305	-501.38626	1017.77460	-1141.80725	-627.01178	1000.87280	-1180.00256	-272.24811	836.50482	-1162.88049	-378.96503	430.93060	-1145.48047	-709.13403	509.30002	-1330.99707	-283.72885	160.29791	-1308.41968				
88	0.870																-713.52191	1412.97144	-1235.37683	-557.93237	1300.08667	-1154.60486				-285.06818	1081.04651	-1174.23499				-484.25217	932.68518	-1405.37842	-860.00330	841.38281	-1292.87793	-506.23300	1018.88196	-1138.79089	-630.17487	1000.45306	-1175.13232				-385.95166	434.26212	-1130.32593	-708.92987	509.41974	-1330.09253	-294.03433	160.52415	-1294.08679				
89	0.880																-716.95807	1412.77332	-1229.23694	-561.23749	1299.88220	-1149.16504				-288.21332	1081.42712	-1172.80811				-486.99966	932.73358	-1399.46143	-864.99976	843.66913	-1280.93591	-508.23419	1020.30756	-1134.44702	-633.64020	1001.90387	-1165.84949				-391.59375	437.21631	-1117.18469	-710.27228	510.50604	-1324.32166	-305.37378	159.56052	-1276.61365				
90	0.890																-720.33728	1412.51843	-1223.20984	-564.67419	1300.07227	-1143.08350				-291.85028	1081.92273	-1168.29089				-489.65906	933.76068	-1394.82886	-869.39136	843.25842	-1265.15137	-510.47464	1019.95355	-1127.53210	-634.72766	1000.03564	-1166.01392				-397.41562	441.59274	-1103.66309	-712.22400	509.41006	-1319.30493	-315.40540	158.80586	-1261.18176				
91	0.900	-656.22839	1540.23999	-1040.23120													-724.10187	1413.13391	-1218.55920	-568.50775	1300.15454	-1137.94458				-294.54150	1082.32141	-1164.04211				-492.64893	933.54370	-1388.68054	-874.05688	843.71600	-1250.00610	-512.94153	1019.86322	-1118.79944	-638.38550	1000.31128	-1155.10278				-403.45123	444.37338	-1089.24243	-712.79938	507.93085	-1321.50891	-327.12503	157.08211	-1243.51599				
92	0.910	-659.44525	1539.74463	-1033.91638	-283.76663	838.08356	-1147.02368										-728.73669	1412.35498	-1215.25891	-570.72809	1300.53772	-1133.08923				-297.87805	1082.26746	-1158.73376	-820.62079	1090.82935	-1285.63794	-495.70605	933.83875	-1383.72485	-878.01721	843.93677	-1235.20825	-515.30670	1019.95624	-1117.60474	-641.00751	1001.77295	-1148.07947				-408.10394	447.69464	-1076.99316	-713.92462	507.25360	-1318.71143	-337.58801	154.75615	-1226.95972				
93	0.920	-662.52960	1539.19238	-1027.69092	-284.43475	837.85822	-1144.37134										-731.11218	1410.88184	-1208.72925	-573.83948	1299.58923	-1126.77991				-300.77475	1082.45374	-1153.79456	-825.17285	1089.34314	-1273.17151	-498.67056	933.79651	-1377.04736	-881.86407	845.25403	-1222.16785	-517.60156	1020.08856	-1107.93359	-642.88953	999.92767	-1145.36841				-412.59991	451.32309	-1064.31689	-715.33954	508.06314	-1313.22937	-348.00745	153.03104	-1210.23523				
94	0.930	-665.54517	1538.60608	-1021.41229	-673.08221	74.25375	-1300.85022										-734.42877	1411.84912	-1201.48926	-577.09991	1299.96582	-1121.29041				-302.34491	1081.99866	-1151.46094	-829.09705	1089.27527	-1263.82275	-501.79922	933.97040	-1371.91577	-886.11761	845.19763	-1206.32654	-519.96057	1019.35388	-1102.85791	-645.33704	998.46722	-1140.23059				-417.72000	453.37875	-1052.73340	-716.02362	505.70767	-1314.25439	-359.70044	149.64157	-1192.06750				
95	0.940	-668.48688	1537.78174	-1014.35199	-674.20422	70.34818	-1307.10388										-738.75830	1410.49377	-1195.51208	-579.29675	1300.47339	-1116.10938				-305.21414	1082.63745	-1146.34570	-832.89221	1089.14014	-1254.20032	-504.84518	933.86053	-1365.61047	-890.37579	845.17358	-1190.51221	-522.41229	1019.49048	-1098.93066	-647.77710	998.98926	-1133.02527	-287.75183	838.95319	-1136.04944	-422.41452	455.55917	-1040.50330	-718.19403	506.42117	-1308.34937	-368.82977	146.83128	-1172.79114				
96	0.950				-675.47839	68.73671	-1308.75940										-740.87787	1409.66614	-1188.09119	-582.77124	1299.54065	-1109.78088				-307.10172	1082.68665	-1142.19324	-837.17993	1087.26111	-1240.45972	-507.99054	934.00476	-1360.67078	-894.55292	846.15179	-1176.38391	-524.84698	1019.24847	-1094.14294	-649.65100	1000.10791	-1118.31201	-288.74887	839.49475	-1133.02124	-425.96951	456.87134	-1028.34973	-719.67188	507.08926	-1306.32141	-378.56372	143.43948	-1153.76563				
97	0.960	-673.84973	1536.59229	-1001.09790	-677.19733	70.46657	-1306.00195										-743.96387	1410.06274	-1180.31165	-584.64471	1298.65552	-1103.37451				-308.71710	1082.66357	-1137.89221	-840.38257	1088.20813	-1233.03247	-510.97095	933.87781	-1354.31970	-897.53625	846.99445	-1162.74133	-527.52325	1018.42957	-1084.72620	-651.43561	999.17688	-1111.76978	-289.32010	838.10663	-1127.91370	-429.25729	458.31821	-1018.73456	-721.15228	507.28760	-1303.25452	-389.10541	139.57294	-1133.86267				
98	0.970	-513.82788	933.96771	-1348.58740	-677.46356	69.88087	-1307.09631										-746.83417	1409.29883	-1173.13562	-587.81354	1298.11841	-1096.91748				-310.57388	1082.99915	-1131.05078	-844.32202	1086.56177	-1219.83264				-900.68115	847.05524	-1147.84839	-528.55560	1018.01111	-1079.96899	-654.40601	998.75391	-1104.40027	-292.61499	838.83893	-1120.54724	-433.69754	459.84314	-1008.56049	-721.90485	506.62088	-1300.11023	-396.19891	136.83096	-1115.60925				
99	0.980	-516.64777	933.48224	-1341.77942	-679.30493	70.97195	-1302.64722										-750.08197	1408.92615	-1165.28540	-588.99493	1296.92004	-1090.38892				-311.23050	1082.57056	-1129.52722	-847.56396	1086.40515	-1210.12549				-904.69135	847.24036	-1131.55212	-531.50049	1017.51483	-1073.48645	-655.72888	998.49945	-1098.03760	-292.34338	839.56403	-1118.57495	-436.51697	460.93552	-998.01263	-723.56775	507.70462	-1295.23877	-404.75449	132.48984	-1093.92456				
100	0.990	-15.71270	1235.56763	-827.44421	-679.69647	70.11739	-1304.25488										-752.63464	1407.74512	-1157.22168	-591.72308	1296.92944	-1084.42285				-313.88345	1081.75134	-1121.47888	-850.71216	1086.38220	-1200.36353				-907.19586	849.96436	-1121.19092	-532.95129	1017.53314	-1066.48645	-658.61853	997.52234	-1091.50452	-293.77109	837.36530	-1112.39404	-439.88535	462.61508	-989.11835	-725.27893	505.88718	-1292.23657	-414.48267	127.33073	-1070.25671				
101	1.000	-683.64264	1533.59741	-972.11835	-680.75482	70.62348	-1302.62878										-754.90173	1406.93274	-1149.30457	-594.08075	1296.06604	-1078.11609				-315.35181	1081.54736	-1115.79370	-854.64362	1084.47131	-1186.81116	-522.40411	932.68500	-1329.32764	-910.03717	849.17902	-1104.47717	-536.01837	1015.99628	-1061.54810	-660.44360	996.86371	-1084.33289	-296.80807	838.03558	-1104.48535	-441.77322	464.00427	-982.56549	-727.27820	507.44406	-1286.93518	-420.73972	122.52135	-1050.74670				
102	1.010	-685.77490	1532.84338	-964.57758	-681.80872	71.03852	-1300.95349										-758.08478	1406.46948	-1141.29895	-596.15466	1295.43042	-1069.74426				-317.29041	1084.10730	-1100.82141	-857.61475	1085.39612	-1179.61914	-525.16821	932.01520	-1321.85400	-913.14630	849.40179	-1089.68677	-537.21161	1016.15771	-1054.46729	-663.10767	995.92633	-1077.38464	-297.43637	838.08850	-1101.31348	-445.47760	464.39789	-975.56110				-428.70447	115.57224	-1029.51648				
103	1.020				-682.29047	69.93751	-1302.90869										-760.52734	1404.37976	-1134.00049	-597.75494	1294.12109	-1063.37805				-319.10757	1082.95032	-1094.03564	-861.24170	1084.08032	-1167.22266	-527.85779	931.67993	-1315.66919	-915.28241	850.25153	-1076.03809	-540.21802	1015.76599	-1044.83643	-665.62170	995.90790	-1070.17090	-297.14291	836.00409	-1095.40479	-448.59497	464.42474	-969.13684				-431.86609	110.96594	-1008.92816				
104	1.030	-690.08417	1531.03796	-949.48431	-682.88245	69.67573	-1301.23291										-762.41846	1404.40381	-1125.00208	-599.85608	1292.78906	-1055.07019	-603.14789	1415.70325	-1221.52734	-321.10864	1082.25317	-1086.88538	-864.45447	1083.72607	-1157.08032	-530.30981	931.35114	-1309.02356	-917.67023	850.89557	-1062.03735	-542.09161	1014.95978	-1038.09265	-667.28571	994.78552	-1062.48218	-300.85358	837.06360	-1088.42749	-452.11755	463.24634	-961.65387				-440.47620	102.51684	-985.08716				
105	1.040	-692.07617	1529.85962	-941.49054	-683.66876	69.83385	-1299.27747										-765.05719	1403.60803	-1116.61511	-602.34625	1292.26404	-1047.53247	-606.05072	1414.68518	-1213.89392	-323.43863	1081.09717	-1081.00684	-867.31256	1083.67480	-1147.29309	-532.74719	930.33368	-1301.49585	-920.35950	851.78058	-1047.83069	-545.37622	1013.44647	-1032.35425	-669.98834	994.20282	-1055.14417	-301.68936	834.23444	-1082.10205	-454.39600	462.00214	-955.41992				-444.19742	97.97548	-963.50958				
106	1.050				-683.98981	68.58446	-1299.61926										-766.88904	1402.58850	-1108.28748	-604.03430	1291.41113	-1041.46545	-608.81824	1413.68481	-1206.19202	-325.33221	1080.70728	-1075.26050	-870.94250	1081.46509	-1132.92529	-535.04303	929.37512	-1293.55554	-922.30566	851.96906	-1033.95374	-547.07611	1012.82263	-1023.47546	-671.62268	992.75604	-1046.59412	-304.65765	834.10834	-1072.31042	-457.02057	458.90057	-951.70056				-450.01965	92.45396	-939.37506				
107	1.060	-695.76880	1527.73767	-925.44220	-684.31616	67.35960	-1299.99304										-769.67145	1401.30542	-1099.57739	-606.13202	1290.06189	-1032.77368	-611.53522	1412.36316	-1198.38416	-328.07373	1079.27661	-1067.96094	-873.80261	1080.94263	-1122.40393	-537.26581	928.70740	-1285.86804	-924.36670	852.56836	-1020.79883	-549.28876	1010.39441	-1016.32538	-674.34906	992.62549	-1037.10193	-306.10385	832.98334	-1067.67969	-453.47977	458.99698	-941.73206				-451.44736	91.74608	-917.01489				
108	1.070																-771.71936	1400.35132	-1090.99622	-608.24487	1289.18542	-1024.46265	-614.13202	1411.14136	-1190.67078	-330.36539	1077.97705	-1060.17725	-876.04211	1079.93274	-1111.21277	-539.68744	927.34430	-1277.35083	-925.67224	852.44983	-1007.40338	-551.44049	1011.05786	-1007.59711	-676.89258	991.95319	-1027.95850	-309.34824	831.22986	-1055.74890	-459.34250	453.81107	-938.14862				-456.24481	92.09792	-892.59589				
